<svg xmlns="http://www.w3.org/2000/svg" viewBox="0 0 400 800" width="400" height="800">
  <defs>
    <linearGradient id="shirt" x1="0" y1="0" x2="0" y2="1">
      <stop offset="0%"  stop-color="#1e2830"/>
      <stop offset="100%" stop-color="#141820"/>
    </linearGradient>
    <radialGradient id="face" cx="50%" cy="30%" r="50%">
      <stop offset="0%"  stop-color="#c8b090"/>
      <stop offset="100%" stop-color="#a08870"/>
    </radialGradient>
  </defs>

  <ellipse cx="200" cy="790" rx="85" ry="11" fill="#000" opacity="0.4"/>

  <!-- Slightly stockier build -->
  <!-- Body: short-sleeved shirt / casual -->
  <path d="M 125,310 L 75,720 L 325,720 L 275,310 Z" fill="url(#shirt)"/>
  <!-- shirt collar -->
  <path d="M 175,308 L 165,360 L 200,345 L 235,360 L 225,308 Z" fill="#1a2228"/>

  <!-- Arms -->
  <path d="M 125,320 L 60,530 L 85,538 L 150,332 Z" fill="#c8b090"/>
  <path d="M 275,320 L 340,530 L 315,538 L 250,332 Z" fill="#c8b090"/>
  <ellipse cx="72"  cy="543" rx="16" ry="11" fill="#c8b090"/>
  <ellipse cx="328" cy="543" rx="16" ry="11" fill="#c8b090"/>

  <!-- Neck -->
  <rect x="186" y="250" width="28" height="62" fill="#b8a080" rx="5"/>

  <!-- Head (rounder face) -->
  <ellipse cx="200" cy="225" rx="74" ry="82" fill="url(#face)"/>

  <!-- Hair (shorter, slightly messy) -->
  <ellipse cx="200" cy="162" rx="75" ry="42" fill="#1a1018"/>
  <path d="M 127,178 Q 114,222 124,258 L 134,253 Q 125,220 136,180 Z" fill="#1a1018"/>
  <path d="M 273,178 Q 286,222 276,258 L 266,253 Q 275,220 264,180 Z" fill="#1a1018"/>
  <!-- Some hair strands -->
  <path d="M 160,158 Q 165,145 175,158" fill="none" stroke="#1a1018" stroke-width="3"/>
  <path d="M 195,155 Q 200,140 208,154" fill="none" stroke="#1a1018" stroke-width="3"/>

  <!-- Eyes (alert, curious) -->
  <ellipse cx="174" cy="222" rx="13" ry="10" fill="#2a1e12"/>
  <ellipse cx="226" cy="222" rx="13" ry="10" fill="#2a1e12"/>
  <ellipse cx="174" cy="221" rx="6"  ry="6" fill="#0a0808"/>
  <ellipse cx="226" cy="221" rx="6"  ry="6" fill="#0a0808"/>
  <ellipse cx="177" cy="219" rx="2.5" ry="2.5" fill="#e8dcc8" opacity="0.75"/>
  <ellipse cx="229" cy="219" rx="2.5" ry="2.5" fill="#e8dcc8" opacity="0.75"/>

  <!-- Brows (slightly raised, inquisitive) -->
  <path d="M 161,206 Q 174,202 188,206" fill="none" stroke="#1a1018" stroke-width="3" stroke-linecap="round"/>
  <path d="M 212,206 Q 226,202 239,206" fill="none" stroke="#1a1018" stroke-width="3" stroke-linecap="round"/>

  <path d="M 196,234 Q 200,248 204,234" fill="none" stroke="#9a7a5a" stroke-width="1.5"/>

  <!-- Neutral slight smile -->
  <path d="M 184,258 Q 200,265 216,258" fill="none" stroke="#8a6a4a" stroke-width="2" stroke-linecap="round"/>

  <text x="10" y="20" font-family="monospace" font-size="12" fill="rgba(200,180,100,0.4)">diao_caidi/normal</text>
</svg>
