<svg xmlns="http://www.w3.org/2000/svg" viewBox="0 0 400 800">
  <defs>
    <radialGradient id="skin" cx="44%" cy="36%" r="56%">
      <stop offset="0%" stop-color="#e0b880"/>
      <stop offset="100%" stop-color="#a87848"/>
    </radialGradient>
    <linearGradient id="shirt" x1="0.1" y1="0" x2="0.8" y2="1">
      <stop offset="0%" stop-color="#1c2838"/>
      <stop offset="100%" stop-color="#101820"/>
    </linearGradient>
    <linearGradient id="pants" x1="0" y1="0" x2="0" y2="1">
      <stop offset="0%" stop-color="#1a1e2c"/>
      <stop offset="100%" stop-color="#0e1018"/>
    </linearGradient>
  </defs>

  <ellipse cx="200" cy="788" rx="90" ry="10" fill="#000" opacity="0.26"/>
  <path d="M 148,530 L 102,762 L 178,762 L 200,640 L 222,762 L 298,762 L 252,530 Z" fill="url(#pants)"/>
  <line x1="160" y1="550" x2="140" y2="762" stroke="#0c0e16" stroke-width="1.5" opacity="0.5"/>
  <line x1="240" y1="550" x2="260" y2="762" stroke="#0c0e16" stroke-width="1.5" opacity="0.5"/>
  <path d="M 128,296 C 110,308 86,360 78,536 L 322,536 C 314,360 290,308 272,296 Z" fill="url(#shirt)"/>
  <path d="M 272,296 C 294,322 316,390 320,536 L 322,536 C 314,360 290,308 272,296 Z" fill="#2e4060" opacity="0.45"/>
  <path d="M 181,290 L 178,316 L 200,308 L 222,316 L 219,290 C 213,286 187,286 181,290 Z" fill="#162030"/>
  <path d="M 181,290 L 200,300 L 219,290" stroke="#0e1828" stroke-width="1.5" fill="none"/>
  <line x1="200" y1="308" x2="200" y2="535" stroke="#162030" stroke-width="2" opacity="0.55"/>
  <path d="M 154,318 C 144,422 136,510 134,538" stroke="#101e2e" stroke-width="1.5" fill="none" opacity="0.45"/>
  <path d="M 246,318 C 256,422 264,510 266,538" stroke="#101e2e" stroke-width="1.5" fill="none" opacity="0.45"/>

  <!-- arms thrown outward in shock -->
  <path d="M 128,302 C 102,318 66,390 44,460 L 64,470 C 84,404 116,332 140,316 Z" fill="#101828"/>
  <rect x="48" y="432" width="36" height="14" rx="3" fill="#1e3048" opacity="0.7"/>
  <path d="M 50,445 C 38,468 34,490 38,506 L 60,510 C 58,494 60,474 68,456 Z" fill="#c8a07a"/>
  <path d="M 38,506 C 26,516 24,530 32,536 C 40,542 56,536 62,524 L 60,510 Z" fill="#c8a07a"/>

  <path d="M 272,302 C 298,318 334,390 356,460 L 336,470 C 316,404 284,332 260,316 Z" fill="#101828"/>
  <rect x="316" y="432" width="36" height="14" rx="3" fill="#1e3048" opacity="0.7"/>
  <path d="M 350,445 C 362,468 366,490 362,506 L 340,510 C 342,494 340,474 332,456 Z" fill="#c8a07a"/>
  <path d="M 362,506 C 374,516 376,530 368,536 C 360,542 344,536 338,524 L 340,510 Z" fill="#c8a07a"/>

  <path d="M 183,258 L 181,296 L 219,296 L 217,258 C 211,253 189,253 183,258 Z" fill="#c8a07a"/>

  <!-- head: slightly tipped back (recoil) -->
  <path d="M 136,195 C 134,153 146,122 163,110 C 175,100 186,96 200,96 C 214,96 225,100 237,110 C 254,122 266,153 264,195 C 266,230 262,258 252,277 C 242,300 224,310 200,311 C 176,310 158,300 148,277 C 138,258 134,230 136,195 Z" fill="url(#skin)"/>
  <!-- face slightly paler/shocked pallor -->
  <ellipse cx="200" cy="195" rx="60" ry="70" fill="#ffffff" opacity="0.06"/>
  <path d="M 136,195 C 134,158 143,128 158,114 C 148,126 142,152 142,195 C 142,228 146,256 154,274 C 144,256 136,232 136,195 Z" fill="#6e3c1e" opacity="0.32"/>
  <path d="M 264,195 C 266,158 257,128 242,114 C 252,126 258,152 258,195 C 258,228 254,256 246,274 C 256,256 264,232 264,195 Z" fill="#c87030" opacity="0.28"/>

  <!-- hair (more tousled from shock) -->
  <path d="M 136,195 C 134,153 146,122 163,110 C 175,100 186,96 200,96 C 214,96 225,100 237,110 C 254,122 266,153 264,195 C 258,163 250,136 236,123 C 222,110 211,106 200,106 C 189,106 178,110 164,123 C 150,136 142,163 136,195 Z" fill="#0c0918"/>
  <path d="M 136,193 C 134,213 135,232 137,254 C 139,236 142,216 146,198 Z" fill="#0a0816"/>
  <path d="M 264,193 C 266,213 265,232 263,254 C 261,236 258,216 254,198 Z" fill="#0a0816"/>
  <!-- messy tousled strands (shock) -->
  <path d="M 168,102 C 158,86 150,76 156,92" stroke="#0c0918" stroke-width="5" fill="none" stroke-linecap="round"/>
  <path d="M 185,97 C 180,79 174,68 180,84" stroke="#0c0918" stroke-width="4.5" fill="none" stroke-linecap="round"/>
  <path d="M 204,96 C 202,77 200,66 206,81" stroke="#0c0918" stroke-width="4" fill="none" stroke-linecap="round"/>
  <path d="M 220,98 C 224,80 228,70 224,86" stroke="#0c0918" stroke-width="4" fill="none" stroke-linecap="round"/>
  <path d="M 235,104 C 244,88 250,80 244,96" stroke="#0c0918" stroke-width="4" fill="none" stroke-linecap="round"/>

  <!-- LEFT EYE: WIDE OPEN — whites visible all around iris -->
  <ellipse cx="177" cy="202" rx="24" ry="18" fill="#8a5030" opacity="0.12"/>
  <!-- extra white area showing -->
  <path d="M 155,202 C 157,188 166,181 177,182 C 188,181 197,188 199,202 C 197,216 188,223 177,223 C 166,223 157,216 155,202 Z" fill="#ecddc8"/>
  <!-- minimal upper lid — eyes wide open -->
  <path d="M 155,201 C 157,188 166,181 177,182 C 188,181 197,188 199,201 C 192,194 177,193 155,201 Z" fill="#18122a"/>
  <!-- bottom lid also visible low -->
  <circle cx="177" cy="202" r="10" fill="#281c10"/>
  <circle cx="177" cy="202" r="6" fill="#080808"/>
  <!-- large highlights (shock = shiny) -->
  <circle cx="172" cy="198" r="3" fill="#ecddc8" opacity="0.95"/>
  <circle cx="182" cy="207" r="1.5" fill="#ecddc8" opacity="0.5"/>
  <path d="M 155,208 C 163,215 170,220 177,221" stroke="#b07848" stroke-width="1.5" fill="none" opacity="0.6"/>

  <!-- RIGHT EYE: WIDE OPEN -->
  <ellipse cx="223" cy="202" rx="24" ry="18" fill="#8a5030" opacity="0.12"/>
  <path d="M 201,202 C 203,188 212,181 223,182 C 234,181 243,188 245,202 C 243,216 234,223 223,223 C 212,223 203,216 201,202 Z" fill="#ecddc8"/>
  <path d="M 201,201 C 203,188 212,181 223,182 C 234,181 243,188 245,201 C 238,194 223,193 201,201 Z" fill="#18122a"/>
  <circle cx="223" cy="202" r="10" fill="#281c10"/>
  <circle cx="223" cy="202" r="6" fill="#080808"/>
  <circle cx="218" cy="198" r="3" fill="#ecddc8" opacity="0.95"/>
  <circle cx="228" cy="207" r="1.5" fill="#ecddc8" opacity="0.5"/>
  <path d="M 201,208 C 209,215 216,220 223,221" stroke="#b07848" stroke-width="1.5" fill="none" opacity="0.6"/>

  <!-- eyebrows: RAISED VERY HIGH — shock -->
  <path d="M 152,176 Q 165,167 184,170" stroke="#16101e" stroke-width="4" stroke-linecap="round" fill="none"/>
  <path d="M 196,176 Q 210,167 228,170" stroke="#16101e" stroke-width="4" stroke-linecap="round" fill="none"/>
  <!-- forehead worry lines (shock) -->
  <path d="M 178,184 C 182,180 200,180 222,184" stroke="#9a6030" stroke-width="1" fill="none" opacity="0.3"/>
  <path d="M 175,176 C 180,172 200,172 225,176" stroke="#9a6030" stroke-width="1" fill="none" opacity="0.2"/>

  <path d="M 195,228 C 193,238 194,244 200,248 C 206,244 207,238 205,228" fill="none" stroke="#9a6840" stroke-width="1.4" opacity="0.58"/>

  <!-- mouth: OPEN O shape — gasp -->
  <ellipse cx="200" cy="292" rx="18" ry="13" fill="#5a2810" opacity="0.9"/>
  <ellipse cx="200" cy="290" rx="14" ry="9" fill="#2a0e08"/>
  <!-- upper teeth hint -->
  <path d="M 188,285 C 192,283 208,283 212,285" stroke="#d8c8a8" stroke-width="2" fill="none" opacity="0.7"/>

  <path d="M 136,200 C 132,190 132,216 136,224 L 142,218 C 139,210 139,194 142,192 Z" fill="#b88862"/>
  <path d="M 264,200 C 268,190 268,216 264,224 L 258,218 C 261,210 261,194 258,192 Z" fill="#b88862"/>
</svg>
