<svg xmlns="http://www.w3.org/2000/svg" viewBox="0 0 400 800">
  <defs>
    <radialGradient id="skin" cx="42%" cy="38%" r="58%">
      <stop offset="0%" stop-color="#d4a87a"/>
      <stop offset="100%" stop-color="#9a6e48"/>
    </radialGradient>
    <linearGradient id="coat" x1="0.1" y1="0" x2="0.9" y2="1">
      <stop offset="0%" stop-color="#1c1830"/>
      <stop offset="100%" stop-color="#0e0c1c"/>
    </linearGradient>
  </defs>

  <!-- ground shadow -->
  <ellipse cx="200" cy="788" rx="94" ry="10" fill="#000" opacity="0.28"/>

  <!-- coat body -->
  <path d="M 114,284 C 94,302 62,362 54,762 L 346,762 C 338,362 306,302 286,284 Z" fill="url(#coat)"/>
  <!-- right edge ambient bounce -->
  <path d="M 286,284 C 310,316 338,400 344,762 L 346,762 C 338,362 306,302 286,284 Z" fill="#362848" opacity="0.55"/>
  <!-- lapel V -->
  <path d="M 200,284 L 160,338 L 146,380 L 200,360 L 254,380 L 240,338 Z" fill="#1e1a30"/>
  <!-- inner shirt at lapel -->
  <path d="M 200,284 L 188,336 L 200,326 L 212,336 Z" fill="#c0b89e" opacity="0.68"/>
  <!-- stand collar -->
  <path d="M 163,277 L 147,314 L 179,306 L 200,299 L 221,306 L 253,314 L 237,277 Z" fill="#181328"/>
  <!-- left arm -->
  <path d="M 114,291 C 92,316 62,442 54,552 L 80,558 C 88,452 114,330 134,308 Z" fill="#100e1c"/>
  <!-- right arm -->
  <path d="M 286,291 C 308,316 338,442 346,552 L 320,558 C 312,452 286,330 266,308 Z" fill="#100e1c"/>
  <!-- hands -->
  <path d="M 54,552 C 40,562 36,578 44,583 C 52,588 68,584 76,573 L 80,558 Z" fill="#b88e6c"/>
  <path d="M 346,552 C 360,562 364,578 356,583 C 348,588 332,584 324,573 L 320,558 Z" fill="#b88e6c"/>
  <!-- coat seam lines -->
  <path d="M 147,308 C 143,446 139,606 139,764" stroke="#0c0a18" stroke-width="1.5" fill="none" opacity="0.48"/>
  <path d="M 253,308 C 257,446 261,606 261,764" stroke="#0c0a18" stroke-width="1.5" fill="none" opacity="0.48"/>
  <!-- belt suggestion -->
  <path d="M 147,492 C 178,497 222,497 253,492" stroke="#0e0c1e" stroke-width="2.5" fill="none" opacity="0.42"/>
  <!-- neck -->
  <path d="M 182,256 L 180,284 L 220,284 L 218,256 C 212,252 188,252 182,256 Z" fill="#bf9070"/>

  <!-- head shape -->
  <path d="M 141,168 C 139,130 149,104 163,94 C 174,86 185,83 200,83 C 215,83 226,86 237,94 C 251,104 261,130 259,168 C 261,200 257,227 249,245 C 239,267 222,276 200,277 C 178,276 161,267 151,245 C 143,227 139,200 141,168 Z" fill="url(#skin)"/>
  <!-- face left shadow -->
  <path d="M 141,168 C 139,135 147,108 161,97 C 151,109 145,132 145,168 C 145,198 149,224 156,242 C 148,227 141,203 141,168 Z" fill="#6e3c1e" opacity="0.35"/>
  <!-- face right rim -->
  <path d="M 259,168 C 261,135 253,108 239,97 C 249,109 255,132 255,168 C 255,198 251,224 244,242 C 252,227 259,203 259,168 Z" fill="#c87030" opacity="0.26"/>

  <!-- hair main mass -->
  <path d="M 141,168 C 139,130 149,104 163,94 C 174,86 185,83 200,83 C 215,83 226,86 237,94 C 251,104 261,130 259,168 C 253,140 247,116 235,105 C 223,95 212,91 200,91 C 188,91 177,95 165,105 C 153,116 147,140 141,168 Z" fill="#0c0918"/>
  <!-- hair sides -->
  <path d="M 141,166 C 139,184 139,204 141,225 C 142,208 144,190 148,174 Z" fill="#0a0816"/>
  <path d="M 259,166 C 261,184 261,204 259,225 C 258,208 256,190 252,174 Z" fill="#0a0816"/>
  <!-- hair strands -->
  <path d="M 172,88 C 168,100 167,117 169,132" stroke="#0a0816" stroke-width="2.5" fill="none" opacity="0.82"/>
  <path d="M 188,83 C 186,97 186,114 188,129" stroke="#0a0816" stroke-width="2" fill="none" opacity="0.72"/>
  <path d="M 210,84 C 210,97 210,113 210,128" stroke="#161228" stroke-width="1.8" fill="none" opacity="0.6"/>
  <path d="M 183,93 C 182,106 183,120 185,133" stroke="#28204a" stroke-width="2" fill="none" opacity="0.38"/>

  <!-- LEFT EYE -->
  <ellipse cx="177" cy="178" rx="21" ry="13" fill="#8a5030" opacity="0.16"/>
  <path d="M 158,178 C 160,169 168,164 177,165 C 186,164 194,169 196,178 C 194,187 186,193 177,193 C 168,193 160,187 158,178 Z" fill="#ecddc8"/>
  <path d="M 158,177 C 160,169 168,164 177,165 C 186,164 194,169 196,177 C 188,170 176,169 158,177 Z" fill="#18122a"/>
  <circle cx="177" cy="178" r="8" fill="#281c10"/>
  <circle cx="177" cy="178" r="4.5" fill="#080808"/>
  <circle cx="173" cy="175" r="2.2" fill="#ecddc8" opacity="0.92"/>
  <circle cx="181" cy="182" r="1" fill="#ecddc8" opacity="0.45"/>
  <path d="M 158,181 C 165,187 171,191 177,192" stroke="#b07848" stroke-width="1.2" fill="none" opacity="0.55"/>

  <!-- RIGHT EYE -->
  <ellipse cx="223" cy="178" rx="21" ry="13" fill="#8a5030" opacity="0.16"/>
  <path d="M 204,178 C 206,169 214,164 223,165 C 232,164 240,169 242,178 C 240,187 232,193 223,193 C 214,193 206,187 204,178 Z" fill="#ecddc8"/>
  <path d="M 204,177 C 206,169 214,164 223,165 C 232,164 240,169 242,177 C 234,170 222,169 204,177 Z" fill="#18122a"/>
  <circle cx="223" cy="178" r="8" fill="#281c10"/>
  <circle cx="223" cy="178" r="4.5" fill="#080808"/>
  <circle cx="219" cy="175" r="2.2" fill="#ecddc8" opacity="0.92"/>
  <circle cx="227" cy="182" r="1" fill="#ecddc8" opacity="0.45"/>
  <path d="M 204,181 C 211,187 217,191 223,192" stroke="#b07848" stroke-width="1.2" fill="none" opacity="0.55"/>

  <!-- eyebrows: slight inward V, detective default -->
  <path d="M 154,161 Q 165,154 183,158" stroke="#16101e" stroke-width="3.5" stroke-linecap="round" fill="none"/>
  <path d="M 197,161 Q 211,154 226,158" stroke="#16101e" stroke-width="3.5" stroke-linecap="round" fill="none"/>

  <!-- nose subtle -->
  <path d="M 196,206 C 195,215 196,221 200,225 C 204,221 205,215 204,206" fill="none" stroke="#9a6840" stroke-width="1.3" opacity="0.58"/>

  <!-- mouth: neutral determined, slight downward corners -->
  <path d="M 182,247 C 189,252 200,253 218,247" fill="none" stroke="#8a4c30" stroke-width="2.2" stroke-linecap="round"/>

  <!-- ears -->
  <path d="M 141,173 C 137,164 137,187 141,194 L 147,189 C 144,182 144,168 147,166 Z" fill="#b88862"/>
  <path d="M 259,173 C 263,164 263,187 259,194 L 253,189 C 256,182 256,168 253,166 Z" fill="#b88862"/>
</svg>
