<svg xmlns="http://www.w3.org/2000/svg" viewBox="0 0 400 800" width="400" height="800">
  <defs>
    <linearGradient id="coat" x1="0" y1="0" x2="0" y2="1">
      <stop offset="0%"  stop-color="#1a1420"/>
      <stop offset="100%" stop-color="#0e0c12"/>
    </linearGradient>
    <radialGradient id="face_light" cx="50%" cy="30%" r="50%">
      <stop offset="0%"  stop-color="#c8a880"/>
      <stop offset="100%" stop-color="#9a7a5a"/>
    </radialGradient>
  </defs>

  <!-- Shadow under feet -->
  <ellipse cx="200" cy="790" rx="90" ry="12" fill="#000" opacity="0.4"/>

  <!-- Long coat body -->
  <path d="M 130,320 L 80,760 L 320,760 L 270,320 Z" fill="url(#coat)"/>
  <!-- coat lapels -->
  <path d="M 175,320 L 155,400 L 200,380 L 245,400 L 225,320 Z" fill="#241c2c"/>
  <!-- coat collar -->
  <path d="M 175,310 L 160,340 L 200,330 L 240,340 L 225,310 Z" fill="#1e1828"/>

  <!-- Arms -->
  <path d="M 130,330 L 60,560 L 85,565 L 155,350 Z" fill="#1a1420"/>
  <path d="M 270,330 L 340,560 L 315,565 L 245,350 Z" fill="#1a1420"/>

  <!-- Hands (slightly visible) -->
  <ellipse cx="72"  cy="570" rx="14" ry="10" fill="#9a7a5a"/>
  <ellipse cx="328" cy="570" rx="14" ry="10" fill="#9a7a5a"/>

  <!-- Neck -->
  <rect x="188" y="255" width="24" height="65" fill="#b89870" rx="4"/>

  <!-- Head -->
  <ellipse cx="200" cy="230" rx="68" ry="80" fill="url(#face_light)"/>

  <!-- Hair (dark) -->
  <ellipse cx="200" cy="170" rx="70" ry="45" fill="#1a1018"/>
  <path d="M 132,185 Q 120,230 130,265 L 140,260 Q 132,225 142,188 Z" fill="#1a1018"/>
  <path d="M 268,185 Q 280,230 270,265 L 260,260 Q 268,225 258,188 Z" fill="#1a1018"/>

  <!-- Eyes (neutral) -->
  <ellipse cx="175" cy="225" rx="12" ry="9" fill="#2a1e10"/>
  <ellipse cx="225" cy="225" rx="12" ry="9" fill="#2a1e10"/>
  <ellipse cx="175" cy="224" rx="5"  ry="5" fill="#0a0808"/>
  <ellipse cx="225" cy="224" rx="5"  ry="5" fill="#0a0808"/>
  <!-- eye highlights -->
  <ellipse cx="178" cy="222" rx="2" ry="2" fill="#e8dcc8" opacity="0.7"/>
  <ellipse cx="228" cy="222" rx="2" ry="2" fill="#e8dcc8" opacity="0.7"/>

  <!-- Eyebrows (slight furrow) -->
  <path d="M 162,210 Q 176,206 188,210" fill="none" stroke="#1a1018" stroke-width="3" stroke-linecap="round"/>
  <path d="M 212,210 Q 224,206 238,210" fill="none" stroke="#1a1018" stroke-width="3" stroke-linecap="round"/>

  <!-- Nose -->
  <path d="M 196,235 Q 200,248 204,235" fill="none" stroke="#9a7a5a" stroke-width="1.5"/>

  <!-- Mouth (neutral / closed) -->
  <path d="M 186,260 Q 200,265 214,260" fill="none" stroke="#8a6a4a" stroke-width="2" stroke-linecap="round"/>

  <!-- Label -->
  <text x="10" y="20" font-family="monospace" font-size="12" fill="rgba(200,180,100,0.4)">narrator/normal</text>
</svg>
