<svg xmlns="http://www.w3.org/2000/svg" viewBox="0 0 400 800" width="400" height="800">
  <defs>
    <linearGradient id="coat" x1="0" y1="0" x2="0" y2="1">
      <stop offset="0%"  stop-color="#1a1420"/>
      <stop offset="100%" stop-color="#0e0c12"/>
    </linearGradient>
    <radialGradient id="face_light" cx="50%" cy="50%" r="50%">
      <stop offset="0%"  stop-color="#b89870"/>
      <stop offset="100%" stop-color="#887060"/>
    </radialGradient>
    <linearGradient id="rim_r" x1="0" y1="0" x2="1" y2="0">
      <stop offset="0%"   stop-color="#c07820" stop-opacity="0"/>
      <stop offset="68%"  stop-color="#c07820" stop-opacity="0"/>
      <stop offset="100%" stop-color="#c07820" stop-opacity="0.30"/>
    </linearGradient>
    <linearGradient id="shadow_l" x1="0" y1="0" x2="1" y2="0">
      <stop offset="0%"   stop-color="#080818" stop-opacity="0.58"/>
      <stop offset="36%"  stop-color="#080818" stop-opacity="0"/>
      <stop offset="100%" stop-color="#000"    stop-opacity="0"/>
    </linearGradient>
  </defs>

  <ellipse cx="200" cy="790" rx="90" ry="12" fill="#000" opacity="0.4"/>
  <path d="M 130,320 L 80,760 L 320,760 L 270,320 Z" fill="url(#coat)"/>
  <!-- Coat fold lines -->
  <line x1="162" y1="346" x2="134" y2="712" stroke="#0a0810" stroke-width="2" opacity="0.50"/>
  <line x1="222" y1="348" x2="243" y2="714" stroke="#0a0810" stroke-width="1.5" opacity="0.38"/>
  <path d="M 268,326 Q 282,542 317,755" stroke="#38264a" stroke-width="2" fill="none" opacity="0.44"/>
  <path d="M 175,320 L 155,400 L 200,380 L 245,400 L 225,320 Z" fill="#241c2c"/>
  <path d="M 175,310 L 160,340 L 200,330 L 240,340 L 225,310 Z" fill="#1e1828"/>
  <path d="M 130,330 L 60,560 L 85,565 L 155,350 Z" fill="#1a1420"/>
  <path d="M 270,330 L 340,560 L 315,565 L 245,350 Z" fill="#1a1420"/>
  <ellipse cx="72"  cy="570" rx="14" ry="10" fill="#9a7a5a"/>
  <ellipse cx="328" cy="570" rx="14" ry="10" fill="#9a7a5a"/>

  <rect x="188" y="255" width="24" height="65" fill="#b89870" rx="4"/>

  <!-- Head slightly lowered (looking down) — slightly dimmer face_light reflects lowered posture -->
  <ellipse cx="200" cy="240" rx="68" ry="78" fill="url(#face_light)"/>
  <ellipse cx="200" cy="182" rx="70" ry="43" fill="#1a1018"/>
  <path d="M 132,195 Q 121,238 131,272 L 141,268 Q 132,234 142,198 Z" fill="#1a1018"/>
  <path d="M 268,195 Q 279,238 269,272 L 259,268 Q 268,234 258,198 Z" fill="#1a1018"/>

  <!-- Eyes looking downward -->
  <ellipse cx="175" cy="242" rx="12" ry="7" fill="#2a1e10"/>
  <ellipse cx="225" cy="242" rx="12" ry="7" fill="#2a1e10"/>
  <ellipse cx="175" cy="244" rx="5"  ry="4" fill="#0a0808"/>
  <ellipse cx="225" cy="244" rx="5"  ry="4" fill="#0a0808"/>
  <!-- Eyelids weighted (more darkness at top) -->
  <path d="M 163,236 Q 175,233 187,236" fill="#1a1018" stroke="none"/>
  <path d="M 213,236 Q 225,233 237,236" fill="#1a1018" stroke="none"/>

  <!-- Brows neutral-down -->
  <path d="M 163,222 Q 175,220 188,222" fill="none" stroke="#1a1018" stroke-width="2.5" stroke-linecap="round"/>
  <path d="M 212,222 Q 224,220 238,222" fill="none" stroke="#1a1018" stroke-width="2.5" stroke-linecap="round"/>

  <path d="M 196,251 Q 200,263 204,251" fill="none" stroke="#9a7a5a" stroke-width="1.5"/>

  <!-- Silent mouth: pressed firmly closed, no curve -->
  <line x1="186" y1="272" x2="214" y2="272" stroke="#7a5a40" stroke-width="2" stroke-linecap="round"/>

  <!-- Atmospheric overlays — heavier shadow for introspection -->
  <rect x="0" y="0" width="400" height="800" fill="url(#rim_r)"/>
  <rect x="0" y="0" width="400" height="800" fill="url(#shadow_l)"/>
  <!-- Top-of-head shadow (head tilted down, less light reaches crown) -->
  <ellipse cx="200" cy="172" rx="72" ry="30" fill="#08081a" opacity="0.18"/>
  <!-- Face rim crescent (dimmer — turned downward) -->
  <ellipse cx="252" cy="232" rx="32" ry="55" fill="#d08030" opacity="0.07"/>

  <text x="10" y="20" font-family="monospace" font-size="12" fill="rgba(200,180,100,0.4)">narrator/silent</text>
</svg>
