<svg xmlns="http://www.w3.org/2000/svg" viewBox="0 0 400 800">
  <defs>
    <radialGradient id="skin" cx="42%" cy="38%" r="58%">
      <stop offset="0%" stop-color="#c8a070"/>
      <stop offset="100%" stop-color="#926844"/>
    </radialGradient>
    <linearGradient id="coat" x1="0.1" y1="0" x2="0.9" y2="1">
      <stop offset="0%" stop-color="#1c1830"/>
      <stop offset="100%" stop-color="#0e0c1c"/>
    </linearGradient>
  </defs>

  <ellipse cx="200" cy="788" rx="94" ry="10" fill="#000" opacity="0.28"/>
  <path d="M 114,284 C 94,302 62,362 54,762 L 346,762 C 338,362 306,302 286,284 Z" fill="url(#coat)"/>
  <path d="M 286,284 C 310,316 338,400 344,762 L 346,762 C 338,362 306,302 286,284 Z" fill="#362848" opacity="0.55"/>
  <path d="M 200,284 L 160,338 L 146,380 L 200,360 L 254,380 L 240,338 Z" fill="#1e1a30"/>
  <path d="M 200,284 L 188,336 L 200,326 L 212,336 Z" fill="#c0b89e" opacity="0.68"/>
  <path d="M 163,277 L 147,314 L 179,306 L 200,299 L 221,306 L 253,314 L 237,277 Z" fill="#181328"/>
  <path d="M 114,291 C 92,316 62,442 54,552 L 80,558 C 88,452 114,330 134,308 Z" fill="#100e1c"/>
  <path d="M 286,291 C 308,316 338,442 346,552 L 320,558 C 312,452 286,330 266,308 Z" fill="#100e1c"/>
  <path d="M 54,552 C 40,562 36,578 44,583 C 52,588 68,584 76,573 L 80,558 Z" fill="#b88e6c"/>
  <path d="M 346,552 C 360,562 364,578 356,583 C 348,588 332,584 324,573 L 320,558 Z" fill="#b88e6c"/>
  <path d="M 147,308 C 143,446 139,606 139,764" stroke="#0c0a18" stroke-width="1.5" fill="none" opacity="0.48"/>
  <path d="M 253,308 C 257,446 261,606 261,764" stroke="#0c0a18" stroke-width="1.5" fill="none" opacity="0.48"/>
  <path d="M 147,492 C 178,497 222,497 253,492" stroke="#0e0c1e" stroke-width="2.5" fill="none" opacity="0.42"/>
  <path d="M 182,256 L 180,284 L 220,284 L 218,256 C 212,252 188,252 182,256 Z" fill="#bf9070"/>

  <!-- head slightly forward / chin tilted down -->
  <path d="M 141,172 C 139,134 149,108 163,98 C 174,90 185,87 200,87 C 215,87 226,90 237,98 C 251,108 261,134 259,172 C 261,204 257,231 249,249 C 239,271 222,280 200,281 C 178,280 161,271 151,249 C 143,231 139,204 141,172 Z" fill="url(#skin)"/>
  <path d="M 141,172 C 139,139 147,112 161,101 C 151,113 145,136 145,172 C 145,202 149,228 156,246 C 148,231 141,207 141,172 Z" fill="#6e3c1e" opacity="0.42"/>
  <path d="M 259,172 C 261,139 253,112 239,101 C 249,113 255,136 255,172 C 255,202 251,228 244,246 C 252,231 259,207 259,172 Z" fill="#c87030" opacity="0.25"/>

  <path d="M 141,172 C 139,134 149,108 163,98 C 174,90 185,87 200,87 C 215,87 226,90 237,98 C 251,108 261,134 259,172 C 253,144 247,120 235,109 C 223,99 212,95 200,95 C 188,95 177,99 165,109 C 153,120 147,144 141,172 Z" fill="#0c0918"/>
  <path d="M 141,170 C 139,188 139,208 141,229 C 142,212 144,194 148,178 Z" fill="#0a0816"/>
  <path d="M 259,170 C 261,188 261,208 259,229 C 258,212 256,194 252,178 Z" fill="#0a0816"/>
  <path d="M 172,92 C 168,104 167,121 169,136" stroke="#0a0816" stroke-width="2.5" fill="none" opacity="0.82"/>
  <path d="M 188,87 C 186,101 186,118 188,133" stroke="#0a0816" stroke-width="2" fill="none" opacity="0.72"/>
  <path d="M 210,88 C 210,101 210,117 210,132" stroke="#161228" stroke-width="1.8" fill="none" opacity="0.6"/>

  <!-- LEFT EYE: gaze down — pupils shifted down, upper lid more closed -->
  <ellipse cx="177" cy="183" rx="21" ry="13" fill="#8a5030" opacity="0.16"/>
  <path d="M 158,183 C 160,174 168,169 177,170 C 186,169 194,174 196,183 C 194,192 186,198 177,198 C 168,198 160,192 158,183 Z" fill="#ecddc8"/>
  <!-- lid more closed for downward gaze -->
  <path d="M 158,182 C 160,174 168,169 177,170 C 186,169 194,174 196,182 C 188,177 176,177 158,187 Z" fill="#18122a"/>
  <!-- iris shifted DOWN -->
  <circle cx="177" cy="185" r="8" fill="#281c10"/>
  <circle cx="177" cy="186" r="4.5" fill="#080808"/>
  <circle cx="173" cy="183" r="2" fill="#ecddc8" opacity="0.85"/>
  <path d="M 158,186 C 165,193 171,196 177,197" stroke="#b07848" stroke-width="1.2" fill="none" opacity="0.55"/>

  <!-- RIGHT EYE: gaze down -->
  <ellipse cx="223" cy="183" rx="21" ry="13" fill="#8a5030" opacity="0.16"/>
  <path d="M 204,183 C 206,174 214,169 223,170 C 232,169 240,174 242,183 C 240,192 232,198 223,198 C 214,198 206,192 204,183 Z" fill="#ecddc8"/>
  <path d="M 204,182 C 206,174 214,169 223,170 C 232,169 240,174 242,182 C 234,177 222,177 204,187 Z" fill="#18122a"/>
  <circle cx="223" cy="185" r="8" fill="#281c10"/>
  <circle cx="223" cy="186" r="4.5" fill="#080808"/>
  <circle cx="219" cy="183" r="2" fill="#ecddc8" opacity="0.85"/>
  <path d="M 204,186 C 211,193 217,196 223,197" stroke="#b07848" stroke-width="1.2" fill="none" opacity="0.55"/>

  <!-- eyebrows: flat, resigned/passive -->
  <path d="M 156,163 Q 168,160 183,162" stroke="#16101e" stroke-width="3.5" stroke-linecap="round" fill="none"/>
  <path d="M 197,163 Q 210,160 225,162" stroke="#16101e" stroke-width="3.5" stroke-linecap="round" fill="none"/>

  <path d="M 196,210 C 195,219 196,225 200,229 C 204,225 205,219 204,210" fill="none" stroke="#9a6840" stroke-width="1.3" opacity="0.55"/>

  <!-- mouth: thin pressed line — saying nothing -->
  <path d="M 184,251 L 216,251" fill="none" stroke="#8a4c30" stroke-width="2.5" stroke-linecap="round"/>

  <path d="M 141,177 C 137,168 137,191 141,198 L 147,193 C 144,186 144,172 147,170 Z" fill="#b88862"/>
  <path d="M 259,177 C 263,168 263,191 259,198 L 253,193 C 256,186 256,172 253,170 Z" fill="#b88862"/>
</svg>
