<svg xmlns="http://www.w3.org/2000/svg" viewBox="0 0 400 800">
  <defs>
    <radialGradient id="skin" cx="42%" cy="38%" r="58%">
      <stop offset="0%" stop-color="#d4a87a"/>
      <stop offset="100%" stop-color="#9a6e48"/>
    </radialGradient>
    <linearGradient id="coat" x1="0.1" y1="0" x2="0.9" y2="1">
      <stop offset="0%" stop-color="#1c1830"/>
      <stop offset="100%" stop-color="#0e0c1c"/>
    </linearGradient>
  </defs>

  <ellipse cx="200" cy="788" rx="94" ry="10" fill="#000" opacity="0.28"/>
  <path d="M 114,284 C 94,302 62,362 54,762 L 346,762 C 338,362 306,302 286,284 Z" fill="url(#coat)"/>
  <path d="M 286,284 C 310,316 338,400 344,762 L 346,762 C 338,362 306,302 286,284 Z" fill="#362848" opacity="0.55"/>
  <path d="M 200,284 L 160,338 L 146,380 L 200,360 L 254,380 L 240,338 Z" fill="#1e1a30"/>
  <path d="M 200,284 L 188,336 L 200,326 L 212,336 Z" fill="#c0b89e" opacity="0.68"/>
  <path d="M 163,277 L 147,314 L 179,306 L 200,299 L 221,306 L 253,314 L 237,277 Z" fill="#181328"/>
  <!-- left arm normal -->
  <path d="M 114,291 C 92,316 62,442 54,552 L 80,558 C 88,452 114,330 134,308 Z" fill="#100e1c"/>
  <!-- right arm raised to chin (thoughtful pose) -->
  <path d="M 286,291 C 310,310 330,360 322,440 L 295,440 C 300,378 282,324 266,308 Z" fill="#100e1c"/>
  <!-- right forearm toward face -->
  <path d="M 296,440 C 290,465 274,490 258,505 L 246,495 C 258,480 272,456 280,435 Z" fill="#100e1c"/>
  <!-- right hand at chin -->
  <path d="M 248,495 C 240,502 237,512 240,520 C 244,526 256,522 262,513 C 265,506 262,498 258,495 Z" fill="#b88e6c"/>
  <!-- left hand normal -->
  <path d="M 54,552 C 40,562 36,578 44,583 C 52,588 68,584 76,573 L 80,558 Z" fill="#b88e6c"/>
  <path d="M 147,308 C 143,446 139,606 139,764" stroke="#0c0a18" stroke-width="1.5" fill="none" opacity="0.48"/>
  <path d="M 253,308 C 257,380 258,420 256,764" stroke="#0c0a18" stroke-width="1.5" fill="none" opacity="0.48"/>
  <path d="M 147,492 C 178,497 200,497 220,494" stroke="#0e0c1e" stroke-width="2.5" fill="none" opacity="0.42"/>
  <path d="M 182,256 L 180,284 L 220,284 L 218,256 C 212,252 188,252 182,256 Z" fill="#bf9070"/>

  <path d="M 141,168 C 139,130 149,104 163,94 C 174,86 185,83 200,83 C 215,83 226,86 237,94 C 251,104 261,130 259,168 C 261,200 257,227 249,245 C 239,267 222,276 200,277 C 178,276 161,267 151,245 C 143,227 139,200 141,168 Z" fill="url(#skin)"/>
  <path d="M 141,168 C 139,135 147,108 161,97 C 151,109 145,132 145,168 C 145,198 149,224 156,242 C 148,227 141,203 141,168 Z" fill="#6e3c1e" opacity="0.38"/>
  <path d="M 259,168 C 261,135 253,108 239,97 C 249,109 255,132 255,168 C 255,198 251,224 244,242 C 252,227 259,203 259,168 Z" fill="#c87030" opacity="0.26"/>

  <path d="M 141,168 C 139,130 149,104 163,94 C 174,86 185,83 200,83 C 215,83 226,86 237,94 C 251,104 261,130 259,168 C 253,140 247,116 235,105 C 223,95 212,91 200,91 C 188,91 177,95 165,105 C 153,116 147,140 141,168 Z" fill="#0c0918"/>
  <path d="M 141,166 C 139,184 139,204 141,225 C 142,208 144,190 148,174 Z" fill="#0a0816"/>
  <path d="M 259,166 C 261,184 261,204 259,225 C 258,208 256,190 252,174 Z" fill="#0a0816"/>
  <path d="M 172,88 C 168,100 167,117 169,132" stroke="#0a0816" stroke-width="2.5" fill="none" opacity="0.82"/>
  <path d="M 188,83 C 186,97 186,114 188,129" stroke="#0a0816" stroke-width="2" fill="none" opacity="0.72"/>
  <path d="M 210,84 C 210,97 210,113 210,128" stroke="#161228" stroke-width="1.8" fill="none" opacity="0.6"/>

  <!-- LEFT EYE: normal open, looking slightly right (gaze toward unseen thing) -->
  <ellipse cx="177" cy="178" rx="21" ry="13" fill="#8a5030" opacity="0.16"/>
  <path d="M 158,178 C 160,169 168,164 177,165 C 186,164 194,169 196,178 C 194,187 186,193 177,193 C 168,193 160,187 158,178 Z" fill="#ecddc8"/>
  <path d="M 158,177 C 160,169 168,164 177,165 C 186,164 194,169 196,177 C 188,170 176,169 158,177 Z" fill="#18122a"/>
  <!-- iris shifted slightly right -->
  <circle cx="179" cy="178" r="8" fill="#281c10"/>
  <circle cx="179" cy="178" r="4.5" fill="#080808"/>
  <circle cx="176" cy="175" r="2.2" fill="#ecddc8" opacity="0.9"/>
  <path d="M 158,181 C 165,187 171,191 177,192" stroke="#b07848" stroke-width="1.2" fill="none" opacity="0.55"/>

  <!-- RIGHT EYE: slightly raised (one brow up = right eye more open) -->
  <ellipse cx="223" cy="176" rx="21" ry="14" fill="#8a5030" opacity="0.16"/>
  <path d="M 204,176 C 206,166 214,161 223,162 C 232,161 240,166 242,176 C 240,186 232,192 223,192 C 214,192 206,186 204,176 Z" fill="#ecddc8"/>
  <path d="M 204,175 C 206,166 214,161 223,162 C 232,161 240,166 242,175 C 234,168 222,167 204,175 Z" fill="#18122a"/>
  <circle cx="225" cy="177" r="8" fill="#281c10"/>
  <circle cx="225" cy="177" r="4.5" fill="#080808"/>
  <circle cx="222" cy="174" r="2.2" fill="#ecddc8" opacity="0.9"/>
  <path d="M 204,179 C 211,185 217,189 223,190" stroke="#b07848" stroke-width="1.2" fill="none" opacity="0.55"/>

  <!-- eyebrows: left flat, right raised (asymmetric) -->
  <path d="M 154,161 Q 165,157 183,160" stroke="#16101e" stroke-width="3.5" stroke-linecap="round" fill="none"/>
  <!-- right brow visibly higher -->
  <path d="M 197,155 Q 211,149 227,154" stroke="#16101e" stroke-width="3.5" stroke-linecap="round" fill="none"/>

  <path d="M 196,206 C 195,215 196,221 200,225 C 204,221 205,215 204,206" fill="none" stroke="#9a6840" stroke-width="1.3" opacity="0.58"/>

  <!-- mouth: slight pursing, contemplative -->
  <path d="M 184,247 C 192,250 208,250 216,247" fill="none" stroke="#8a4c30" stroke-width="2.2" stroke-linecap="round"/>

  <path d="M 141,173 C 137,164 137,187 141,194 L 147,189 C 144,182 144,168 147,166 Z" fill="#b88862"/>
  <path d="M 259,173 C 263,164 263,187 259,194 L 253,189 C 256,182 256,168 253,166 Z" fill="#b88862"/>
</svg>
