<svg xmlns="http://www.w3.org/2000/svg" viewBox="0 0 400 800">
  <defs>
    <radialGradient id="skin" cx="42%" cy="38%" r="58%">
      <stop offset="0%" stop-color="#cca274"/>
      <stop offset="100%" stop-color="#966848"/>
    </radialGradient>
    <linearGradient id="coat" x1="0.1" y1="0" x2="0.9" y2="1">
      <stop offset="0%" stop-color="#1c1830"/>
      <stop offset="100%" stop-color="#0e0c1c"/>
    </linearGradient>
  </defs>

  <ellipse cx="200" cy="788" rx="94" ry="10" fill="#000" opacity="0.28"/>
  <path d="M 114,284 C 94,302 62,362 54,762 L 346,762 C 338,362 306,302 286,284 Z" fill="url(#coat)"/>
  <path d="M 286,284 C 310,316 338,400 344,762 L 346,762 C 338,362 306,302 286,284 Z" fill="#362848" opacity="0.55"/>
  <path d="M 200,284 L 160,338 L 146,380 L 200,360 L 254,380 L 240,338 Z" fill="#1e1a30"/>
  <path d="M 200,284 L 188,336 L 200,326 L 212,336 Z" fill="#c0b89e" opacity="0.68"/>
  <path d="M 163,277 L 147,314 L 179,306 L 200,299 L 221,306 L 253,314 L 237,277 Z" fill="#181328"/>
  <path d="M 114,291 C 92,316 62,442 54,552 L 80,558 C 88,452 114,330 134,308 Z" fill="#100e1c"/>
  <path d="M 286,291 C 308,316 338,442 346,552 L 320,558 C 312,452 286,330 266,308 Z" fill="#100e1c"/>
  <path d="M 54,552 C 40,562 36,578 44,583 C 52,588 68,584 76,573 L 80,558 Z" fill="#b88e6c"/>
  <path d="M 346,552 C 360,562 364,578 356,583 C 348,588 332,584 324,573 L 320,558 Z" fill="#b88e6c"/>
  <path d="M 147,308 C 143,446 139,606 139,764" stroke="#0c0a18" stroke-width="1.5" fill="none" opacity="0.48"/>
  <path d="M 253,308 C 257,446 261,606 261,764" stroke="#0c0a18" stroke-width="1.5" fill="none" opacity="0.48"/>
  <path d="M 147,492 C 178,497 222,497 253,492" stroke="#0e0c1e" stroke-width="2.5" fill="none" opacity="0.42"/>
  <path d="M 182,256 L 180,284 L 220,284 L 218,256 C 212,252 188,252 182,256 Z" fill="#bf9070"/>

  <path d="M 141,168 C 139,130 149,104 163,94 C 174,86 185,83 200,83 C 215,83 226,86 237,94 C 251,104 261,130 259,168 C 261,200 257,227 249,245 C 239,267 222,276 200,277 C 178,276 161,267 151,245 C 143,227 139,200 141,168 Z" fill="url(#skin)"/>
  <path d="M 141,168 C 139,135 147,108 161,97 C 151,109 145,132 145,168 C 145,198 149,224 156,242 C 148,227 141,203 141,168 Z" fill="#6e3c1e" opacity="0.40"/>
  <path d="M 259,168 C 261,135 253,108 239,97 C 249,109 255,132 255,168 C 255,198 251,224 244,242 C 252,227 259,203 259,168 Z" fill="#c87030" opacity="0.26"/>
  <!-- fatigue shadow under eyes -->
  <ellipse cx="177" cy="193" rx="18" ry="6" fill="#6a3818" opacity="0.32"/>
  <ellipse cx="223" cy="193" rx="18" ry="6" fill="#6a3818" opacity="0.32"/>

  <path d="M 141,168 C 139,130 149,104 163,94 C 174,86 185,83 200,83 C 215,83 226,86 237,94 C 251,104 261,130 259,168 C 253,140 247,116 235,105 C 223,95 212,91 200,91 C 188,91 177,95 165,105 C 153,116 147,140 141,168 Z" fill="#0c0918"/>
  <path d="M 141,166 C 139,184 139,204 141,225 C 142,208 144,190 148,174 Z" fill="#0a0816"/>
  <path d="M 259,166 C 261,184 261,204 259,225 C 258,208 256,190 252,174 Z" fill="#0a0816"/>
  <path d="M 172,88 C 168,100 167,117 169,132" stroke="#0a0816" stroke-width="2.5" fill="none" opacity="0.82"/>
  <path d="M 188,83 C 186,97 186,114 188,129" stroke="#0a0816" stroke-width="2" fill="none" opacity="0.72"/>
  <path d="M 210,84 C 210,97 210,113 210,128" stroke="#161228" stroke-width="1.8" fill="none" opacity="0.6"/>

  <!-- LEFT EYE: heavy drooping lid -->
  <ellipse cx="177" cy="181" rx="21" ry="13" fill="#8a5030" opacity="0.20"/>
  <path d="M 158,181 C 160,172 168,167 177,168 C 186,167 194,172 196,181 C 194,190 186,196 177,196 C 168,196 160,190 158,181 Z" fill="#ecddc8"/>
  <!-- heavy upper lid — drapes low over iris -->
  <path d="M 158,180 C 161,172 168,167 177,168 C 186,167 194,172 196,180 C 188,177 176,178 158,186 Z" fill="#18122a"/>
  <circle cx="177" cy="182" r="8" fill="#281c10"/>
  <circle cx="177" cy="182" r="4.5" fill="#080808"/>
  <circle cx="173" cy="179" r="2" fill="#ecddc8" opacity="0.85"/>
  <path d="M 158,185 C 165,191 171,194 177,195" stroke="#b07848" stroke-width="1.2" fill="none" opacity="0.6"/>
  <path d="M 161,189 C 167,195 175,197 184,195" stroke="#8a5030" stroke-width="1.5" fill="none" opacity="0.45"/>

  <!-- RIGHT EYE: heavy drooping lid -->
  <ellipse cx="223" cy="181" rx="21" ry="13" fill="#8a5030" opacity="0.20"/>
  <path d="M 204,181 C 206,172 214,167 223,168 C 232,167 240,172 242,181 C 240,190 232,196 223,196 C 214,196 206,190 204,181 Z" fill="#ecddc8"/>
  <path d="M 204,180 C 207,172 214,167 223,168 C 232,167 240,172 242,180 C 234,177 222,178 204,186 Z" fill="#18122a"/>
  <circle cx="223" cy="182" r="8" fill="#281c10"/>
  <circle cx="223" cy="182" r="4.5" fill="#080808"/>
  <circle cx="219" cy="179" r="2" fill="#ecddc8" opacity="0.85"/>
  <path d="M 204,185 C 211,191 217,194 223,195" stroke="#b07848" stroke-width="1.2" fill="none" opacity="0.6"/>
  <path d="M 207,189 C 213,195 221,197 230,195" stroke="#8a5030" stroke-width="1.5" fill="none" opacity="0.45"/>

  <!-- eyebrows: tired — outer ends noticeably lower -->
  <path d="M 154,165 Q 165,163 183,165" stroke="#16101e" stroke-width="3.5" stroke-linecap="round" fill="none"/>
  <path d="M 197,165 Q 211,163 226,165" stroke="#16101e" stroke-width="3.5" stroke-linecap="round" fill="none"/>

  <path d="M 196,209 C 195,218 196,224 200,228 C 204,224 205,218 204,209" fill="none" stroke="#9a6840" stroke-width="1.3" opacity="0.55"/>

  <!-- mouth: weary sag at corners -->
  <path d="M 184,252 C 190,256 200,256 216,253" fill="none" stroke="#8a4c30" stroke-width="2.2" stroke-linecap="round"/>

  <path d="M 141,173 C 137,164 137,187 141,194 L 147,189 C 144,182 144,168 147,166 Z" fill="#b88862"/>
  <path d="M 259,173 C 263,164 263,187 259,194 L 253,189 C 256,182 256,168 253,166 Z" fill="#b88862"/>
</svg>
