<svg xmlns="http://www.w3.org/2000/svg" viewBox="0 0 400 800">
  <defs>
    <radialGradient id="skin" cx="42%" cy="38%" r="58%">
      <stop offset="0%" stop-color="#d4a87a"/>
      <stop offset="100%" stop-color="#9a6e48"/>
    </radialGradient>
    <linearGradient id="coat" x1="0.1" y1="0" x2="0.9" y2="1">
      <stop offset="0%" stop-color="#1c1830"/>
      <stop offset="100%" stop-color="#0e0c1c"/>
    </linearGradient>
  </defs>

  <ellipse cx="200" cy="788" rx="94" ry="10" fill="#000" opacity="0.28"/>
  <path d="M 114,284 C 94,302 62,362 54,762 L 346,762 C 338,362 306,302 286,284 Z" fill="url(#coat)"/>
  <path d="M 286,284 C 310,316 338,400 344,762 L 346,762 C 338,362 306,302 286,284 Z" fill="#362848" opacity="0.55"/>
  <path d="M 200,284 L 160,338 L 146,380 L 200,360 L 254,380 L 240,338 Z" fill="#1e1a30"/>
  <path d="M 200,284 L 188,336 L 200,326 L 212,336 Z" fill="#c0b89e" opacity="0.68"/>
  <path d="M 163,277 L 147,314 L 179,306 L 200,299 L 221,306 L 253,314 L 237,277 Z" fill="#181328"/>
  <path d="M 114,291 C 92,316 62,442 54,552 L 80,558 C 88,452 114,330 134,308 Z" fill="#100e1c"/>
  <path d="M 286,291 C 308,316 338,442 346,552 L 320,558 C 312,452 286,330 266,308 Z" fill="#100e1c"/>
  <path d="M 54,552 C 40,562 36,578 44,583 C 52,588 68,584 76,573 L 80,558 Z" fill="#b88e6c"/>
  <path d="M 346,552 C 360,562 364,578 356,583 C 348,588 332,584 324,573 L 320,558 Z" fill="#b88e6c"/>
  <path d="M 147,308 C 143,446 139,606 139,764" stroke="#0c0a18" stroke-width="1.5" fill="none" opacity="0.48"/>
  <path d="M 253,308 C 257,446 261,606 261,764" stroke="#0c0a18" stroke-width="1.5" fill="none" opacity="0.48"/>
  <path d="M 147,492 C 178,497 222,497 253,492" stroke="#0e0c1e" stroke-width="2.5" fill="none" opacity="0.42"/>
  <path d="M 182,256 L 180,284 L 220,284 L 218,256 C 212,252 188,252 182,256 Z" fill="#bf9070"/>

  <path d="M 141,168 C 139,130 149,104 163,94 C 174,86 185,83 200,83 C 215,83 226,86 237,94 C 251,104 261,130 259,168 C 261,200 257,227 249,245 C 239,267 222,276 200,277 C 178,276 161,267 151,245 C 143,227 139,200 141,168 Z" fill="url(#skin)"/>
  <path d="M 141,168 C 139,135 147,108 161,97 C 151,109 145,132 145,168 C 145,198 149,224 156,242 C 148,227 141,203 141,168 Z" fill="#6e3c1e" opacity="0.42"/>
  <path d="M 259,168 C 261,135 253,108 239,97 C 249,109 255,132 255,168 C 255,198 251,224 244,242 C 252,227 259,203 259,168 Z" fill="#c87030" opacity="0.28"/>
  <!-- forehead tension crease -->
  <path d="M 193,152 C 196,148 200,147 204,148" stroke="#8a5a30" stroke-width="1.2" fill="none" opacity="0.35"/>

  <path d="M 141,168 C 139,130 149,104 163,94 C 174,86 185,83 200,83 C 215,83 226,86 237,94 C 251,104 261,130 259,168 C 253,140 247,116 235,105 C 223,95 212,91 200,91 C 188,91 177,95 165,105 C 153,116 147,140 141,168 Z" fill="#0c0918"/>
  <path d="M 141,166 C 139,184 139,204 141,225 C 142,208 144,190 148,174 Z" fill="#0a0816"/>
  <path d="M 259,166 C 261,184 261,204 259,225 C 258,208 256,190 252,174 Z" fill="#0a0816"/>
  <path d="M 172,88 C 168,100 167,117 169,132" stroke="#0a0816" stroke-width="2.5" fill="none" opacity="0.82"/>
  <path d="M 188,83 C 186,97 186,114 188,129" stroke="#0a0816" stroke-width="2" fill="none" opacity="0.72"/>
  <path d="M 210,84 C 210,97 210,113 210,128" stroke="#161228" stroke-width="1.8" fill="none" opacity="0.6"/>

  <!-- LEFT EYE: slightly narrowed, tense -->
  <ellipse cx="177" cy="178" rx="21" ry="13" fill="#8a5030" opacity="0.18"/>
  <path d="M 159,178 C 161,170 168,165 177,166 C 186,165 194,170 196,178 C 194,187 186,192 177,192 C 168,192 161,187 159,178 Z" fill="#ecddc8"/>
  <path d="M 159,177 C 161,170 168,165 177,166 C 186,165 194,170 196,177 C 188,171 176,170 159,177 Z" fill="#18122a"/>
  <!-- narrowed: lower lid raised slightly -->
  <path d="M 159,181 C 165,186 171,189 177,189" stroke="#b07848" stroke-width="2" fill="none" opacity="0.6"/>
  <circle cx="177" cy="179" r="8" fill="#281c10"/>
  <circle cx="177" cy="179" r="4.5" fill="#080808"/>
  <circle cx="173" cy="176" r="2.2" fill="#ecddc8" opacity="0.9"/>

  <!-- RIGHT EYE: slightly narrowed -->
  <ellipse cx="223" cy="178" rx="21" ry="13" fill="#8a5030" opacity="0.18"/>
  <path d="M 204,178 C 206,170 214,165 223,166 C 232,165 240,170 242,178 C 240,187 232,192 223,192 C 214,192 206,187 204,178 Z" fill="#ecddc8"/>
  <path d="M 204,177 C 206,170 214,165 223,166 C 232,165 240,170 242,177 C 234,171 222,170 204,177 Z" fill="#18122a"/>
  <path d="M 204,181 C 210,186 217,189 223,189" stroke="#b07848" stroke-width="2" fill="none" opacity="0.6"/>
  <circle cx="223" cy="179" r="8" fill="#281c10"/>
  <circle cx="223" cy="179" r="4.5" fill="#080808"/>
  <circle cx="219" cy="176" r="2.2" fill="#ecddc8" opacity="0.9"/>

  <!-- eyebrows: DEEP furrow — inner ends pulled sharply DOWN -->
  <path d="M 153,166 Q 165,155 183,161" stroke="#16101e" stroke-width="4" stroke-linecap="round" fill="none"/>
  <path d="M 197,166 Q 211,155 227,161" stroke="#16101e" stroke-width="4" stroke-linecap="round" fill="none"/>
  <!-- inner brow crease shadow -->
  <path d="M 183,161 C 192,158 193,158 197,161" stroke="#2a1e10" stroke-width="2" fill="none" opacity="0.5"/>

  <path d="M 196,206 C 195,215 196,221 200,225 C 204,221 205,215 204,206" fill="none" stroke="#9a6840" stroke-width="1.3" opacity="0.58"/>

  <!-- mouth: clear frown, corners down -->
  <path d="M 183,252 Q 200,246 217,252" fill="none" stroke="#8a4c30" stroke-width="2.5" stroke-linecap="round"/>

  <path d="M 141,173 C 137,164 137,187 141,194 L 147,189 C 144,182 144,168 147,166 Z" fill="#b88862"/>
  <path d="M 259,173 C 263,164 263,187 259,194 L 253,189 C 256,182 256,168 253,166 Z" fill="#b88862"/>
</svg>
