<svg xmlns="http://www.w3.org/2000/svg" viewBox="0 0 400 800" width="400" height="800">
  <defs>
    <linearGradient id="coat" x1="0" y1="0" x2="0" y2="1">
      <stop offset="0%"  stop-color="#1a1420"/>
      <stop offset="100%" stop-color="#0e0c12"/>
    </linearGradient>
    <radialGradient id="face_light" cx="50%" cy="30%" r="50%">
      <stop offset="0%"  stop-color="#c8a880"/>
      <stop offset="100%" stop-color="#9a7a5a"/>
    </radialGradient>
  </defs>

  <ellipse cx="200" cy="790" rx="90" ry="12" fill="#000" opacity="0.4"/>
  <path d="M 130,320 L 80,760 L 320,760 L 270,320 Z" fill="url(#coat)"/>
  <path d="M 175,320 L 155,400 L 200,380 L 245,400 L 225,320 Z" fill="#241c2c"/>
  <path d="M 175,310 L 160,340 L 200,330 L 240,340 L 225,310 Z" fill="#1e1828"/>

  <!-- One arm raised (troubled gesture) -->
  <path d="M 130,330 L 80,530 L 105,540 L 155,345 Z" fill="#1a1420"/>
  <!-- raised hand near face -->
  <path d="M 270,330 L 310,480 L 330,475 L 285,325 Z" fill="#1a1420"/>
  <ellipse cx="92"  cy="548" rx="14" ry="10" fill="#9a7a5a"/>
  <!-- hand near face -->
  <ellipse cx="320" cy="470" rx="14" ry="12" fill="#9a7a5a"/>

  <rect x="188" y="255" width="24" height="65" fill="#b89870" rx="4"/>
  <ellipse cx="200" cy="230" rx="68" ry="80" fill="url(#face_light)"/>
  <ellipse cx="200" cy="170" rx="70" ry="45" fill="#1a1018"/>
  <path d="M 132,185 Q 120,230 130,265 L 140,260 Q 132,225 142,188 Z" fill="#1a1018"/>
  <path d="M 268,185 Q 280,230 270,265 L 260,260 Q 268,225 258,188 Z" fill="#1a1018"/>

  <!-- Troubled eyes: widened, unfocused -->
  <ellipse cx="174" cy="224" rx="13" ry="10" fill="#2a1e10"/>
  <ellipse cx="226" cy="224" rx="13" ry="10" fill="#2a1e10"/>
  <ellipse cx="174" cy="223" rx="6"  ry="6" fill="#0a0808"/>
  <ellipse cx="226" cy="223" rx="6"  ry="6" fill="#0a0808"/>
  <ellipse cx="177" cy="221" rx="2"  ry="2" fill="#e8dcc8" opacity="0.6"/>
  <ellipse cx="229" cy="221" rx="2"  ry="2" fill="#e8dcc8" opacity="0.6"/>

  <!-- Furrowed brows (troubled) -->
  <path d="M 162,208 Q 173,203 187,209" fill="none" stroke="#1a1018" stroke-width="3.5" stroke-linecap="round"/>
  <path d="M 213,209 Q 227,203 238,208" fill="none" stroke="#1a1018" stroke-width="3.5" stroke-linecap="round"/>
  <!-- brow crease -->
  <line x1="196" y1="205" x2="198" y2="215" stroke="#7a5a40" stroke-width="1.5" opacity="0.5"/>
  <line x1="202" y1="205" x2="204" y2="215" stroke="#7a5a40" stroke-width="1.5" opacity="0.5"/>

  <path d="M 196,235 Q 200,248 204,235" fill="none" stroke="#9a7a5a" stroke-width="1.5"/>
  <!-- Troubled mouth: tight -->
  <path d="M 187,260 Q 200,256 213,260" fill="none" stroke="#8a6a4a" stroke-width="2" stroke-linecap="round"/>

  <text x="10" y="20" font-family="monospace" font-size="12" fill="rgba(200,180,100,0.4)">narrator/troubled</text>
</svg>
